<svg width="178" height="148" viewBox="0 0 178 148" fill="none" xmlns="http://www.w3.org/2000/svg">
<g id="Group 26">
<g id="Group">
<g id="Group_2">
<path id="Vector" d="M128.899 110.11C129.079 110.23 129.249 110.36 129.389 110.49C130.319 111.39 129.649 113.5 127.789 116.02C125.919 118.55 124.089 119.8 122.969 119.17C121.839 118.54 120.569 116.7 120.569 116.7L90.3585 94.32C90.3285 93.66 90.4785 92.99 90.7085 92.37C91.2485 90.86 92.2385 89.67 92.2385 89.67C92.2385 89.67 92.9085 88.66 93.9485 87.76C94.2185 87.52 94.5285 87.3 94.8585 87.09C95.2485 86.85 95.6785 86.65 96.1285 86.53L126.339 108.91C126.339 108.91 127.879 109.4 128.919 110.1L128.899 110.11Z" fill="white"/>
<path id="Vector_2" d="M39.1785 14.05C26.6385 11.51 14.5285 15.77 6.54852 26.54C-1.42148 37.3 -1.97148 50.13 4.10852 61.39C6.95852 66.66 11.2585 71.58 16.9385 75.79C21.4485 79.13 26.1285 81.5 30.7985 82.94C33.1385 83.66 35.4785 84.14 37.7885 84.39C40.1585 84.64 42.5085 84.66 44.7985 84.41C44.7985 84.41 44.8085 84.41 44.8285 84.41C45.2785 84.37 45.7285 84.31 46.1685 84.24C46.1985 84.24 46.2285 84.24 46.2685 84.22C47.5785 84.07 49.6885 83.88 52.3685 83.76C52.3685 83.76 52.3885 83.76 52.4285 83.76C62.0885 83.36 78.8785 84.11 90.6785 92.38C91.2185 90.87 92.2085 89.68 92.2085 89.68C92.2085 89.68 92.8785 88.67 93.9185 87.77C82.6585 78.89 77.0985 63.17 74.6585 53.84C74.6485 53.8 74.6485 53.78 74.6385 53.76C74.6385 53.73 74.6285 53.71 74.6285 53.71C73.9485 51.12 73.5185 49.04 73.2785 47.75C73.2785 47.71 73.2785 47.68 73.2685 47.65C73.1785 47.19 73.1285 46.84 73.0885 46.6C73.0585 46.46 73.0485 46.36 73.0385 46.32C73.0385 46.3 73.0385 46.29 73.0385 46.29C72.3585 42.77 71.0685 39.31 69.1985 36C68.6885 35.1 68.1485 34.2 67.5485 33.32C64.8185 29.27 61.1785 25.48 56.6785 22.15C50.9985 17.94 45.0385 15.26 39.1685 14.07L39.1785 14.05ZM80.5685 81.37C75.6985 79.84 70.7385 78.96 66.0985 78.5C64.1685 78.3 62.3085 78.18 60.5285 78.1C62.9185 76.25 65.1285 74.01 67.0785 71.38C69.0285 68.75 70.5385 65.99 71.6085 63.16C72.2185 64.91 72.9085 66.73 73.6885 68.58C75.4685 72.82 77.7285 77.24 80.5685 81.37ZM63.9685 38.15C65.6385 40.95 66.8785 43.95 67.5485 47.05C67.7485 47.99 67.8885 48.94 67.9785 49.89C68.5585 55.78 67.0385 61.99 62.5685 68.03C58.1085 74.05 52.6385 77.32 46.8585 78.49C46.8485 78.49 46.8385 78.49 46.8385 78.49C45.8885 78.68 44.9185 78.82 43.9485 78.9C40.7785 79.17 37.5585 78.85 34.3885 78.07C29.3985 76.83 24.5485 74.43 20.2785 71.27C14.9185 67.3 10.4385 62.12 7.87852 56.3C4.28852 48.19 4.40852 38.85 11.0585 29.87C17.7085 20.89 26.6085 18.05 35.4185 19.13C41.7385 19.89 47.9985 22.67 53.3585 26.64C57.6285 29.8 61.3385 33.74 63.9785 38.16L63.9685 38.15Z" fill="white"/>
<g id="Clip path group">
<mask id="mask0_7_552" style="mask-type:luminance" maskUnits="userSpaceOnUse" x="5" y="18" width="64" height="62">
<g id="clippath">
<path id="Vector_3" d="M67.5585 47.06C65.8385 39.05 60.3385 31.81 53.3585 26.64C40.5385 17.14 22.4885 14.46 11.0685 29.88C-0.351491 45.3 7.46851 61.79 20.2885 71.28C27.2685 76.45 35.7985 79.6 43.9585 78.92C44.9285 78.84 45.8985 78.7 46.8485 78.51C46.8485 78.51 46.8585 78.51 46.8685 78.51C52.6485 77.34 58.1185 74.07 62.5785 68.05C67.0585 62.01 68.5785 55.8 67.9885 49.91C67.8985 48.96 67.7485 48.01 67.5585 47.07V47.06Z" fill="white"/>
</g>
</mask>
<g mask="url(#mask0_7_552)">
<g id="Group_3">
<g id="Group_4">
<path id="Vector_4" d="M84.1948 31.7764L36.873 95.6583L37.1944 95.8964L84.5162 32.0145L84.1948 31.7764Z" fill="white"/>
<path id="Vector_5" d="M78.3972 27.4675L31.0753 91.3493L31.3967 91.5874L78.7186 27.7056L78.3972 27.4675Z" fill="white"/>
<path id="Vector_6" d="M72.5935 23.1665L25.2717 87.0483L25.5931 87.2864L72.915 23.4046L72.5935 23.1665Z" fill="white"/>
<path id="Vector_7" d="M66.7799 18.8656L19.4581 82.7474L19.7795 82.9855L67.1014 19.1037L66.7799 18.8656Z" fill="white"/>
<path id="Vector_8" d="M60.9683 14.5686L13.6464 78.4505L13.9678 78.6886L61.2897 14.8067L60.9683 14.5686Z" fill="white"/>
<path id="Vector_9" d="M55.1706 10.2597L7.84875 74.1415L8.17017 74.3796L55.492 10.4978L55.1706 10.2597Z" fill="white"/>
<path id="Vector_10" d="M49.357 5.95873L2.03516 69.8406L2.35657 70.0787L49.6784 6.19682L49.357 5.95873Z" fill="white"/>
<path id="Vector_11" d="M43.5534 1.65776L-3.76846 65.5396L-3.44705 65.7777L43.8748 1.89586L43.5534 1.65776Z" fill="white"/>
<path id="Vector_12" d="M37.7418 -2.64914L-9.58011 61.2327L-9.25869 61.4708L38.0632 -2.41104L37.7418 -2.64914Z" fill="white"/>
<path id="Vector_13" d="M31.9341 -6.94812L-15.3878 56.9337L-15.0663 57.1718L32.2555 -6.71002L31.9341 -6.94812Z" fill="white"/>
<path id="Vector_14" d="M22.1082 -5.47821L21.8701 -5.15675L85.7603 42.154L85.9983 41.8325L22.1082 -5.47821Z" fill="white"/>
<path id="Vector_15" d="M17.8007 0.314796L17.5626 0.636215L81.4444 47.9581L81.6825 47.6367L17.8007 0.314796Z" fill="white"/>
<path id="Vector_16" d="M13.4997 6.12841L13.2616 6.44983L77.1434 53.7717L77.3815 53.4503L13.4997 6.12841Z" fill="white"/>
<path id="Vector_17" d="M9.19876 11.932L8.96066 12.2534L72.8425 59.5753L73.0806 59.2539L9.19876 11.932Z" fill="white"/>
<path id="Vector_18" d="M4.90186 17.7437L4.66376 18.0651L68.5456 65.3869L68.7837 65.0655L4.90186 17.7437Z" fill="white"/>
<path id="Vector_19" d="M0.592865 23.5513L0.354767 23.8727L64.2366 71.1946L64.4747 70.8732L0.592865 23.5513Z" fill="white"/>
<path id="Vector_20" d="M-3.71231 29.3574L-3.95035 29.6788L59.9398 76.9895L60.1778 76.6681L-3.71231 29.3574Z" fill="white"/>
<path id="Vector_21" d="M-8.00904 35.1585L-8.24713 35.4799L55.6347 82.8018L55.8728 82.4804L-8.00904 35.1585Z" fill="white"/>
<path id="Vector_22" d="M-12.3059 40.9802L-12.544 41.3016L51.3378 88.6235L51.5759 88.3021L-12.3059 40.9802Z" fill="white"/>
<path id="Vector_23" d="M-16.6255 46.7792L-16.8636 47.1006L47.0266 94.4114L47.2646 94.0899L-16.6255 46.7792Z" fill="white"/>
</g>
</g>
</g>
</g>
<path id="Vector_24" d="M128.899 110.11C129.079 110.23 129.249 110.36 129.389 110.49C130.319 111.39 129.649 113.5 127.789 116.02C125.919 118.55 124.089 119.8 122.969 119.17C121.839 118.54 120.569 116.7 120.569 116.7L90.3585 94.32C90.3285 93.66 90.4785 92.99 90.7085 92.37C91.2485 90.86 92.2385 89.67 92.2385 89.67C92.2385 89.67 92.9085 88.66 93.9485 87.76C94.2185 87.52 94.5285 87.3 94.8585 87.09C94.9185 88.83 95.1285 90.59 95.6185 92.24C95.9585 93.35 96.4585 94.43 97.3085 95.25C98.0885 95.99 98.9985 95.94 100.009 95.98C101.029 96.01 102.109 96.1 102.959 96.73C103.659 97.26 104.039 98.05 104.349 98.84C104.669 99.65 104.949 100.67 105.589 101.28C106.269 101.91 107.479 101.84 108.329 101.9C109.289 101.96 110.239 102.09 111.069 102.61C112.149 103.28 112.939 104.31 113.679 105.32C114.439 106.34 115.219 107.53 116.259 108.3C117.189 109 118.349 108.58 119.359 109.05C121.249 109.92 121.179 112.41 122.899 113.41C124.149 114.13 125.409 113.89 126.489 113C127.459 112.2 128.199 111.15 128.899 110.1V110.11Z" fill="white"/>
<path id="Vector_25" d="M7.87852 56.31C10.4485 62.13 14.9285 67.31 20.2785 71.28C24.5485 74.44 29.3885 76.85 34.3885 78.08L30.7985 82.93C26.1285 81.49 21.4485 79.12 16.9385 75.78C11.2585 71.57 6.95852 66.65 4.10852 61.38L7.86852 56.3L7.87852 56.31Z" fill="white"/>
<path id="Vector_26" d="M56.6885 22.13C61.1985 25.47 64.8285 29.25 67.5585 33.3L63.9685 38.15C61.3285 33.73 57.6185 29.8 53.3485 26.63C47.9885 22.66 41.7285 19.89 35.4085 19.12L39.1685 14.04C45.0385 15.23 50.9985 17.91 56.6785 22.12L56.6885 22.13Z" fill="white"/>
<path id="Vector_27" d="M74.6685 53.84C77.1085 63.17 82.6685 78.89 93.9285 87.77C92.8785 88.67 92.2185 89.68 92.2185 89.68C92.2185 89.68 91.2285 90.87 90.6885 92.38C78.8885 84.11 62.1085 83.37 52.4385 83.76C53.1985 83.65 60.2085 82.61 66.0985 78.51C70.7385 78.98 75.6985 79.85 80.5685 81.38C77.7285 77.24 75.4685 72.83 73.6885 68.59C76.0185 61.85 74.8585 54.87 74.6685 53.85V53.84Z" fill="white"/>
<path id="Vector_28" d="M50.8785 81.7C62.1085 80.36 74.1785 63.9 72.3085 52.77C72.9585 54.32 73.1285 56.04 73.1285 57.73C72.9285 68.24 62.0885 82.31 50.8885 81.69L50.8785 81.7Z" fill="white"/>
</g>
<g id="Group_5">
<path id="Vector_29" d="M48.8985 110.11C48.7185 110.23 48.5485 110.36 48.4085 110.49C47.4785 111.39 48.1485 113.5 50.0085 116.02C51.8785 118.55 53.7085 119.8 54.8285 119.17C55.9585 118.54 57.2285 116.7 57.2285 116.7L87.4385 94.32C87.4685 93.66 87.3185 92.99 87.0885 92.37C86.5485 90.86 85.5585 89.67 85.5585 89.67C85.5585 89.67 84.8885 88.66 83.8485 87.76C83.5785 87.52 83.2685 87.3 82.9385 87.09C82.5485 86.85 82.1185 86.65 81.6685 86.53L51.4585 108.91C51.4585 108.91 49.9185 109.4 48.8785 110.1L48.8985 110.11Z" fill="white"/>
<path id="Vector_30" d="M121.109 22.13C116.599 25.47 112.969 29.25 110.239 33.3C109.649 34.18 109.099 35.07 108.589 35.98C106.719 39.29 105.429 42.75 104.749 46.27C104.749 46.27 104.749 46.28 104.749 46.3C104.749 46.34 104.729 46.45 104.699 46.58C104.669 46.82 104.609 47.17 104.519 47.63C104.519 47.66 104.509 47.69 104.509 47.73C104.269 49.02 103.839 51.11 103.159 53.69C103.159 53.69 103.159 53.71 103.149 53.74C103.149 53.76 103.149 53.78 103.129 53.82C100.689 63.15 95.1285 78.87 83.8685 87.75C84.9185 88.65 85.5785 89.66 85.5785 89.66C85.5785 89.66 86.5685 90.85 87.1085 92.36C98.9085 84.09 115.689 83.35 125.359 83.74C125.399 83.74 125.419 83.74 125.419 83.74C128.089 83.85 130.209 84.04 131.519 84.19C131.559 84.2 131.589 84.21 131.619 84.21C132.059 84.28 132.509 84.34 132.959 84.38C132.979 84.38 132.989 84.38 132.989 84.38C135.279 84.62 137.629 84.61 139.999 84.36C142.309 84.11 144.649 83.63 146.989 82.91C151.659 81.47 156.339 79.1 160.849 75.76C166.529 71.55 170.829 66.63 173.679 61.36C179.769 50.1 179.209 37.27 171.239 26.51C163.269 15.75 151.159 11.48 138.609 14.02C132.739 15.21 126.779 17.89 121.099 22.1L121.109 22.13ZM104.109 68.58C104.889 66.73 105.579 64.91 106.189 63.16C107.259 65.99 108.769 68.75 110.719 71.38C112.669 74.01 114.869 76.26 117.269 78.1C115.489 78.17 113.629 78.3 111.699 78.5C107.059 78.97 102.099 79.84 97.2285 81.37C100.069 77.23 102.329 72.82 104.109 68.58ZM124.449 26.64C129.809 22.67 136.069 19.9 142.389 19.13C151.199 18.06 160.099 20.9 166.749 29.87C173.399 38.85 173.529 48.2 169.929 56.3C167.359 62.12 162.879 67.3 157.529 71.27C153.259 74.43 148.419 76.84 143.419 78.07C140.249 78.85 137.029 79.17 133.859 78.9C132.889 78.82 131.919 78.68 130.969 78.49C130.969 78.49 130.959 78.49 130.949 78.49C125.169 77.32 119.699 74.05 115.239 68.03C110.759 61.99 109.239 55.78 109.829 49.89C109.919 48.94 110.069 47.99 110.259 47.05C110.929 43.94 112.169 40.95 113.839 38.15C116.479 33.73 120.189 29.8 124.459 26.63L124.449 26.64Z" fill="white"/>
<g id="Clip path group_2">
<mask id="mask1_7_552" style="mask-type:luminance" maskUnits="userSpaceOnUse" x="109" y="18" width="64" height="62">
<g id="clippath-1">
<path id="Vector_31" d="M110.249 47.06C111.969 39.05 117.469 31.81 124.449 26.64C137.269 17.14 155.319 14.46 166.739 29.88C178.159 45.3 170.339 61.79 157.519 71.28C150.539 76.45 142.009 79.6 133.849 78.92C132.879 78.84 131.909 78.7 130.959 78.51C130.959 78.51 130.949 78.51 130.939 78.51C125.159 77.34 119.689 74.07 115.229 68.05C110.749 62.01 109.229 55.8 109.819 49.91C109.909 48.96 110.059 48.01 110.249 47.07V47.06Z" fill="white"/>
</g>
</mask>
<g mask="url(#mask1_7_552)">
<g id="Group_6">
<g id="Group_7">
<path id="Vector_32" d="M93.5945 31.7721L93.2731 32.0102L140.595 95.892L140.916 95.6539L93.5945 31.7721Z" fill="white"/>
<path id="Vector_33" d="M99.3956 27.4744L99.0742 27.7125L146.396 91.5944L146.717 91.3563L99.3956 27.4744Z" fill="white"/>
<path id="Vector_34" d="M105.215 23.1708L104.893 23.4089L152.215 87.2908L152.536 87.0527L105.215 23.1708Z" fill="white"/>
<path id="Vector_35" d="M111.018 18.8692L110.696 19.1073L158.018 82.9891L158.34 82.751L111.018 18.8692Z" fill="white"/>
<path id="Vector_36" d="M116.827 14.5655L116.505 14.8036L163.827 78.6855L164.149 78.4474L116.827 14.5655Z" fill="white"/>
<path id="Vector_37" d="M122.628 10.2679L122.306 10.506L169.628 74.3878L169.95 74.1498L122.628 10.2679Z" fill="white"/>
<path id="Vector_38" d="M128.437 5.96427L128.115 6.20238L175.437 70.0842L175.759 69.8461L128.437 5.96427Z" fill="white"/>
<path id="Vector_39" d="M134.25 1.65264L133.929 1.89075L181.25 65.7726L181.572 65.5345L134.25 1.65264Z" fill="white"/>
<path id="Vector_40" d="M140.059 -2.65097L139.738 -2.41287L187.059 61.469L187.381 61.2309L140.059 -2.65097Z" fill="white"/>
<path id="Vector_41" d="M145.868 -6.94458L145.547 -6.70649L192.868 57.1754L193.19 56.9373L145.868 -6.94458Z" fill="white"/>
<path id="Vector_42" d="M155.704 -5.46475L91.8141 41.846L92.0522 42.1674L155.942 -5.14329L155.704 -5.46475Z" fill="white"/>
<path id="Vector_43" d="M159.987 0.328349L96.1048 47.6502L96.3429 47.9716L160.225 0.649769L159.987 0.328349Z" fill="white"/>
<path id="Vector_44" d="M164.29 6.13739L100.408 53.4593L100.647 53.7807L164.528 6.4588L164.29 6.13739Z" fill="white"/>
<path id="Vector_45" d="M168.602 11.9405L104.72 59.2624L104.958 59.5838L168.84 12.2619L168.602 11.9405Z" fill="white"/>
<path id="Vector_46" d="M172.906 17.7495L109.024 65.0714L109.262 65.3928L173.144 18.071L172.906 17.7495Z" fill="white"/>
<path id="Vector_47" d="M177.209 23.5686L113.327 70.8905L113.565 71.2119L177.447 23.89L177.209 23.5686Z" fill="white"/>
<path id="Vector_48" d="M181.51 29.3748L117.62 76.6855L117.858 77.0069L181.748 29.6962L181.51 29.3748Z" fill="white"/>
<path id="Vector_49" d="M185.798 35.1823L121.924 82.5153L122.162 82.8367L186.036 35.5037L185.798 35.1823Z" fill="white"/>
<path id="Vector_50" d="M190.112 40.9818L126.23 88.3036L126.468 88.625L190.35 41.3032L190.112 40.9818Z" fill="white"/>
<path id="Vector_51" d="M194.418 46.7996L130.527 94.1103L130.766 94.4318L194.656 47.1211L194.418 46.7996Z" fill="white"/>
</g>
</g>
</g>
</g>
<path id="Vector_52" d="M48.8985 110.11C48.7185 110.23 48.5485 110.36 48.4085 110.49C47.4785 111.39 48.1485 113.5 50.0085 116.02C51.8785 118.55 53.7085 119.8 54.8285 119.17C55.9585 118.54 57.2285 116.7 57.2285 116.7L87.4385 94.32C87.4685 93.66 87.3185 92.99 87.0885 92.37C86.5485 90.86 85.5585 89.67 85.5585 89.67C85.5585 89.67 84.8885 88.66 83.8485 87.76C83.5785 87.52 83.2685 87.3 82.9385 87.09C82.8785 88.83 82.6685 90.59 82.1785 92.24C81.8385 93.35 81.3385 94.43 80.4885 95.25C79.7085 95.99 78.7985 95.94 77.7885 95.98C76.7685 96.01 75.6885 96.1 74.8385 96.73C74.1385 97.26 73.7585 98.05 73.4485 98.84C73.1285 99.65 72.8485 100.67 72.2085 101.28C71.5285 101.91 70.3185 101.84 69.4685 101.9C68.5085 101.96 67.5585 102.09 66.7285 102.61C65.6485 103.28 64.8585 104.31 64.1185 105.32C63.3585 106.34 62.5785 107.53 61.5385 108.3C60.6085 109 59.4485 108.58 58.4385 109.05C56.5485 109.92 56.6185 112.41 54.8985 113.41C53.6485 114.13 52.3885 113.89 51.3085 113C50.3385 112.2 49.5985 111.15 48.8985 110.1V110.11Z" fill="white"/>
<path id="Vector_53" d="M169.929 56.31C167.359 62.13 162.879 67.31 157.529 71.28C153.259 74.44 148.419 76.85 143.419 78.08L147.009 82.93C151.679 81.49 156.359 79.12 160.869 75.78C166.549 71.57 170.849 66.65 173.699 61.38L169.939 56.3L169.929 56.31Z" fill="white"/>
<path id="Vector_54" d="M121.109 22.13C116.599 25.47 112.969 29.25 110.239 33.3L113.829 38.15C116.469 33.73 120.179 29.8 124.449 26.63C129.809 22.66 136.069 19.89 142.389 19.12L138.629 14.04C132.759 15.23 126.799 17.91 121.119 22.12L121.109 22.13Z" fill="white"/>
<path id="Vector_55" d="M103.129 53.84C100.689 63.17 95.1285 78.89 83.8685 87.77C84.9185 88.67 85.5785 89.68 85.5785 89.68C85.5785 89.68 86.5685 90.87 87.1085 92.38C98.9085 84.11 115.689 83.37 125.359 83.76C124.599 83.65 117.589 82.61 111.699 78.51C107.059 78.98 102.099 79.85 97.2285 81.38C100.069 77.24 102.329 72.83 104.109 68.59C101.779 61.85 102.939 54.87 103.129 53.85V53.84Z" fill="white"/>
<path id="Vector_56" d="M126.919 81.7C115.689 80.36 103.619 63.9 105.489 52.77C104.839 54.32 104.669 56.04 104.669 57.73C104.869 68.24 115.709 82.31 126.919 81.69V81.7Z" fill="white"/>
</g>
</g>
<g id="Group_8">
<path id="Vector_57" d="M107.169 18.28C107.169 19.59 107.029 20.87 106.759 22.1C106.649 22.61 106.529 23.12 106.369 23.62C106.289 23.89 106.199 24.16 106.109 24.43C106.059 24.55 106.019 24.66 105.979 24.77C105.899 24.98 105.819 25.18 105.729 25.39C105.639 25.62 105.539 25.85 105.429 26.08C105.279 26.41 105.119 26.73 104.949 27.04C104.809 27.28 104.679 27.52 104.529 27.76C104.409 27.96 104.289 28.16 104.159 28.35C103.909 28.73 103.649 29.1 103.369 29.45C103.259 29.6 103.139 29.74 103.029 29.88C102.839 30.12 102.639 30.35 102.439 30.57C102.399 30.61 102.359 30.66 102.319 30.69C102.209 30.81 102.089 30.93 101.989 31.05C101.869 31.17 101.749 31.29 101.619 31.41C101.439 31.59 101.249 31.76 101.059 31.93C100.889 32.09 100.709 32.24 100.529 32.39C99.9085 32.9 99.2586 33.36 98.5786 33.79C98.3786 33.91 98.1685 34.04 97.9585 34.16C97.7985 34.26 97.6186 34.35 97.4486 34.45C97.3286 34.52 97.2086 34.58 97.0786 34.64C96.9186 34.72 96.7585 34.8 96.5985 34.87C96.5785 34.89 96.5486 34.89 96.5186 34.9C96.3086 35 96.0985 35.09 95.8885 35.18C95.2685 35.44 94.6185 35.66 93.9585 35.85C93.7985 35.9 93.6486 35.94 93.4786 35.98C93.1886 36.06 92.8985 36.13 92.5985 36.18C92.3585 36.23 92.1086 36.28 91.8586 36.31C91.7186 36.34 91.5686 36.36 91.4286 36.37C91.2886 36.39 91.1385 36.42 90.9986 36.42C90.8885 36.44 90.7785 36.45 90.6685 36.46C90.4185 36.48 90.1786 36.51 89.9286 36.51C89.9086 36.51 89.8786 36.51 89.8386 36.51C89.5286 36.53 89.2186 36.53 88.9086 36.53C79.3486 36.53 71.4885 29.19 70.7085 19.82C70.6585 19.31 70.6385 18.78 70.6385 18.25V18.16C70.6385 17.9 70.6386 17.62 70.6586 17.36C70.6786 17.01 70.6985 16.66 70.7385 16.32C70.7685 16.05 70.7986 15.78 70.8386 15.52C70.8386 15.49 70.8586 15.46 70.8586 15.42C70.8886 15.18 70.9286 14.94 70.9786 14.7C71.0786 14.18 71.2085 13.67 71.3485 13.17C71.3985 12.98 71.4586 12.8 71.5086 12.62C71.5786 12.42 71.6385 12.22 71.7085 12.03C71.7785 11.84 71.8586 11.65 71.9386 11.45C71.9986 11.29 72.0685 11.12 72.1385 10.95C72.1785 10.88 72.2085 10.81 72.2385 10.74C72.3785 10.42 72.5286 10.12 72.6886 9.81C72.6886 9.79 72.7085 9.77 72.7085 9.76C72.7985 9.58 72.8986 9.41 72.9986 9.24C73.0986 9.06 73.1986 8.88 73.3086 8.71C74.5386 6.7 76.1486 4.96 78.0386 3.57C78.5286 3.2 79.0386 2.87 79.5586 2.57C82.2886 0.930001 85.4785 0 88.8885 0C91.6285 0 94.2286 0.600001 96.5486 1.69C97.0386 1.91 97.5186 2.16 97.9786 2.43C98.4386 2.69 98.8786 2.98 99.3086 3.28C99.6186 3.5 99.9286 3.72 100.229 3.97C104.439 7.3 107.149 12.47 107.149 18.26L107.169 18.28Z" fill="white"/>
</g>
<g id="Group_9">
<g id="Group_10">
<path id="Vector_58" d="M40.19 144.18L33.54 144.52L40.18 145.05C39.12 146.54 34.79 151.04 24.25 144.38C34.98 138.04 39.18 142.66 40.19 144.18Z" fill="white"/>
<path id="Vector_59" d="M41.27 142.89L40.35 136.29L40.4 142.95C38.82 142.03 33.96 138.11 39.67 127.02C46.93 137.15 42.7 141.74 41.27 142.88V142.89Z" fill="white"/>
<path id="Vector_60" d="M31.57 137.63L25.68 135.91L31.29 138.38C29.92 139.36 24.79 141.96 17.64 132.98C28.89 130.71 31.15 135.99 31.57 137.62V137.63Z" fill="white"/>
<path id="Vector_61" d="M32.89 136.84L34.08 130.82L32.11 136.63C31.02 135.35 27.97 130.47 36.29 122.55C39.54 133.56 34.48 136.27 32.89 136.83V136.84Z" fill="white"/>
<path id="Vector_62" d="M23.69 120.13L19.98 116.48L23.18 120.58C21.77 120.76 16.89 120.64 15.15 111.06C24.47 113.89 24.03 118.74 23.69 120.13Z" fill="white"/>
<path id="Vector_63" d="M25 120.07L28.31 116.06L24.5 119.61C24.2 118.22 23.88 113.35 33.28 110.78C31.28 120.31 26.41 120.3 25 120.08V120.07Z" fill="white"/>
<path id="Vector_64" d="M24.06 111.34L22.12 107.78L23.58 111.57C22.48 111.38 18.87 110.19 19.75 102.65C26.06 106.87 24.63 110.4 24.06 111.35V111.34Z" fill="white"/>
<path id="Vector_65" d="M25.05 111.59L28.43 109.35L24.79 111.13C24.88 110.02 25.75 106.32 33.34 106.53C29.69 113.19 26.05 112.07 25.05 111.59Z" fill="white"/>
<path id="Vector_66" d="M29.2 101.31L31.73 98.14L28.81 100.95C28.56 99.87 28.26 96.07 35.55 93.96C34.11 101.41 30.3 101.46 29.2 101.31Z" fill="white"/>
<path id="Vector_67" d="M26.14 128.61L21.36 125.36L25.67 129.21C24.16 129.69 18.8 130.53 15 120.4C25.75 121.63 26.23 127.03 26.14 128.61Z" fill="white"/>
<path id="Vector_68" d="M27.56 128.28L30.38 123.23L26.93 127.87C26.32 126.41 25.01 121.15 34.76 116.47C34.48 127.28 29.15 128.24 27.56 128.28Z" fill="white"/>
<path id="Vector_69" d="M26.19 104.56L25.62 101.36L25.77 104.61C24.98 104.19 22.54 102.36 25.12 96.85C28.85 101.66 26.87 103.98 26.19 104.56Z" fill="white"/>
<path id="Vector_70" d="M26.88 105.01L30.02 104.16L26.8 104.59C27.15 103.77 28.75 101.17 34.47 103.26C30 107.4 27.52 105.63 26.88 105.01Z" fill="white"/>
</g>
<g id="Group_11">
<path id="Vector_71" d="M143.73 144.18L150.38 144.52L143.74 145.05C144.8 146.54 149.13 151.04 159.67 144.38C148.94 138.04 144.74 142.66 143.73 144.18Z" fill="white"/>
<path id="Vector_72" d="M142.65 142.89L143.57 136.29L143.52 142.95C145.1 142.03 149.96 138.11 144.25 127.02C136.99 137.15 141.23 141.74 142.65 142.88V142.89Z" fill="white"/>
<path id="Vector_73" d="M152.36 137.63L158.25 135.91L152.64 138.38C154.01 139.36 159.14 141.96 166.29 132.98C155.04 130.71 152.78 135.99 152.36 137.62V137.63Z" fill="white"/>
<path id="Vector_74" d="M151.03 136.84L149.84 130.82L151.81 136.63C152.9 135.35 155.95 130.47 147.63 122.55C144.38 133.56 149.44 136.27 151.03 136.83V136.84Z" fill="white"/>
<path id="Vector_75" d="M160.23 120.13L163.94 116.48L160.74 120.58C162.15 120.76 167.03 120.64 168.77 111.06C159.45 113.89 159.89 118.74 160.23 120.13Z" fill="white"/>
<path id="Vector_76" d="M158.93 120.07L155.62 116.06L159.43 119.61C159.73 118.22 160.05 113.35 150.65 110.78C152.65 120.31 157.52 120.3 158.93 120.08V120.07Z" fill="white"/>
<path id="Vector_77" d="M159.87 111.34L161.81 107.78L160.35 111.57C161.45 111.38 165.06 110.19 164.18 102.65C157.87 106.87 159.3 110.4 159.87 111.35V111.34Z" fill="white"/>
<path id="Vector_78" d="M158.88 111.59L155.5 109.35L159.14 111.13C159.05 110.02 158.18 106.32 150.59 106.53C154.24 113.19 157.88 112.07 158.88 111.59Z" fill="white"/>
<path id="Vector_79" d="M154.72 101.31L152.19 98.14L155.12 100.95C155.37 99.87 155.67 96.07 148.38 93.96C149.82 101.41 153.63 101.46 154.73 101.31H154.72Z" fill="white"/>
<path id="Vector_80" d="M157.78 128.61L162.56 125.36L158.25 129.21C159.76 129.69 165.12 130.53 168.92 120.4C158.17 121.63 157.69 127.03 157.78 128.61Z" fill="white"/>
<path id="Vector_81" d="M156.36 128.28L153.54 123.23L156.99 127.87C157.6 126.41 158.91 121.15 149.16 116.47C149.44 127.28 154.77 128.24 156.36 128.28Z" fill="white"/>
<path id="Vector_82" d="M157.73 104.56L158.3 101.36L158.15 104.61C158.94 104.19 161.38 102.36 158.8 96.85C155.07 101.66 157.05 103.98 157.73 104.56Z" fill="white"/>
<path id="Vector_83" d="M157.04 105.01L153.9 104.16L157.12 104.59C156.77 103.77 155.17 101.17 149.45 103.26C153.92 107.4 156.4 105.63 157.04 105.01Z" fill="white"/>
</g>
</g>
</g>
</svg>
